<svg width="48" height="48" viewBox="0 0 48 48" fill="none" xmlns="http://www.w3.org/2000/svg">
<path fill-rule="evenodd" clip-rule="evenodd" d="M37.9435 11.2852C38.1213 10.8384 38.2376 10.5464 37.65 10.5464H35.6705C31.7122 10.5464 26.629 8.67146 24.7991 7.94113C24.3522 7.76279 23.8562 7.76279 23.4093 7.94113C21.5794 8.67146 16.4962 10.5464 12.5379 10.5464H10.5584C9.97083 10.5464 10.0871 10.8384 10.2649 11.2852C10.3771 11.5671 10.5138 11.9106 10.5138 12.2813V22.7482C10.5138 29.2425 14.1409 35.1931 19.9133 38.169L23.3092 39.9197C23.808 40.1768 24.4004 40.1768 24.8992 39.9197L28.2951 38.169C34.0675 35.1931 37.6946 29.2425 37.6946 22.7482V12.2813C37.6946 11.9106 37.8313 11.5671 37.9435 11.2852ZM30.8763 19.2936C31.3417 18.7829 31.3276 17.9913 30.834 17.4977L30.7897 17.4554C30.279 16.99 29.4874 17.0041 28.9938 17.4977L22.144 24.3471L19.7929 21.9959L19.7486 21.9536C19.2379 21.4882 18.4464 21.5023 17.9527 21.9959C17.4446 22.5041 17.4446 23.3279 17.9527 23.8361L21.2242 27.1075L21.2685 27.1498C21.7791 27.6153 22.5707 27.6012 23.0643 27.1075L30.834 19.3379L30.8763 19.2936Z" fill="#79E2F2"/>
</svg>
