<svg width="48" height="48" viewBox="0 0 48 48" fill="none" xmlns="http://www.w3.org/2000/svg">
<path opacity="0.5" fill-rule="evenodd" clip-rule="evenodd" d="M14.4566 35.9168C14.4246 36.607 13.8549 37.1567 13.1568 37.1567C12.4382 37.1567 11.8556 36.5742 11.8556 35.8555V29.5174C11.8555 29.5096 11.8554 29.5018 11.8554 29.494V27.4699L11.8556 27.4481V12.1447L11.857 12.0834C11.889 11.3932 12.4587 10.8435 13.1568 10.8435C13.8755 10.8435 14.458 11.4261 14.458 12.1447V23.2189C15.1086 22.8864 15.8457 22.6988 16.6265 22.6988H30.9397L31.0099 22.6977C32.1752 22.6606 33.1084 21.7043 33.1084 20.5301V12.1446L33.1098 12.0833C33.1418 11.3931 33.7115 10.8434 34.4096 10.8434C35.1283 10.8434 35.7108 11.4259 35.7108 12.1446V20.5301L35.7099 20.6229C35.6605 23.2151 33.5437 25.3012 30.9397 25.3012H16.6265L16.5563 25.3023C15.4011 25.339 14.4739 26.2792 14.458 27.4396V35.8555L14.4566 35.9168Z" fill="#79E2F2"/>
<rect width="8.6747" height="8.6747" rx="4.33735" transform="matrix(1 0 0 -1 8.96387 16.4819)" fill="#79E2F2"/>
<rect width="11.2771" height="11.2771" rx="5.63855" transform="matrix(1 0 0 -1 28.7711 19.084)" fill="#79E2F2"/>
<rect width="11.2771" height="11.2771" rx="5.63855" transform="matrix(1 0 0 -1 7.51807 19.084)" fill="#79E2F2"/>
<path fill-rule="evenodd" clip-rule="evenodd" d="M13.1573 40.1929C16.2714 40.1929 18.7959 37.6684 18.7959 34.5543V34.5543C18.7959 31.4402 16.2714 28.9158 13.1573 28.9158V28.9158C10.0432 28.9158 7.51877 31.4402 7.51877 34.5543V34.5543C7.51877 37.6684 10.0432 40.1929 13.1573 40.1929V40.1929Z" fill="#79E2F2"/>
</svg>
