<svg width="48" height="48" viewBox="0 0 48 48" fill="none" xmlns="http://www.w3.org/2000/svg">
<path d="M8.19679 18.8292C11.4151 15.611 16.633 15.611 19.8513 18.8292C20.3594 19.3374 20.3594 20.1613 19.8513 20.6694C19.3431 21.1776 18.5192 21.1776 18.0111 20.6694C15.8091 18.4674 12.239 18.4674 10.037 20.6694C7.83498 22.8714 7.83498 26.4416 10.037 28.6435C12.2131 30.8196 15.7253 30.8452 17.9328 28.7204L18.0111 28.6435L22.9182 23.7364C23.4264 23.2282 24.2503 23.2282 24.7584 23.7364C25.2507 24.2287 25.2661 25.0172 24.8046 25.528L24.7584 25.5766L19.8513 30.4837C16.633 33.702 11.4151 33.702 8.19679 30.4837C4.97849 27.2654 4.97849 22.0475 8.19679 18.8292Z" fill="#79E2F2"/>
<path d="M27.9751 18.7309C31.1934 15.5126 36.4113 15.5126 39.6296 18.7309C42.8479 21.9492 42.8479 27.167 39.6296 30.3853C36.4113 33.6036 31.1934 33.6036 27.9751 30.3853C27.467 29.8772 27.467 29.0533 27.9751 28.5452C28.4833 28.037 29.3072 28.037 29.8153 28.5452C32.0173 30.7472 35.5874 30.7472 37.7894 28.5452C39.9914 26.3432 39.9914 22.773 37.7894 20.571C35.6134 18.395 32.1011 18.3694 29.8936 20.4942L29.8153 20.571L24.9082 25.4782C24.4 25.9863 23.5761 25.9863 23.068 25.4782C22.5757 24.9859 22.5603 24.1973 23.0218 23.6866L23.068 23.638L27.9751 18.7309Z" fill="#79E2F2"/>
<path d="M20.6661 15.3254C21.3642 15.3254 21.9339 15.8752 21.9659 16.5654L21.9673 16.6266V21.8315C21.9673 22.5296 21.4175 23.0993 20.7273 23.1313L20.6661 23.1327H15.8083C15.0896 23.1327 14.507 22.5501 14.507 21.8315C14.507 21.1334 15.0568 20.5637 15.747 20.5317L15.8083 20.5303H19.3647L19.3649 16.6266C19.3649 15.9285 19.9146 15.3588 20.6048 15.3269L20.6661 15.3254Z" fill="#79E2F2"/>
</svg>
